<?xml version="1.0" standalone="no"?>
<svg xmlns:xlink="http://www.w3.org/1999/xlink" id="wave" style="transform:rotate(180deg); transition: 0.3s" viewBox="0 0 1440 490" version="1.1" xmlns="http://www.w3.org/2000/svg"><defs><linearGradient id="sw-gradient-0" x1="0" x2="0" y1="1" y2="0"><stop stop-color="rgba(0, 150, 136, 1)" offset="0%"/><stop stop-color="rgba(63, 81, 181, 1)" offset="100%"/></linearGradient></defs><path style="transform:translate(0, 0px); opacity:1" fill="url(#sw-gradient-0)" d="M0,245L80,236.8C160,229,320,212,480,187.8C640,163,800,131,960,98C1120,65,1280,33,1440,40.8C1600,49,1760,98,1920,130.7C2080,163,2240,180,2400,212.3C2560,245,2720,294,2880,261.3C3040,229,3200,114,3360,106.2C3520,98,3680,196,3840,212.3C4000,229,4160,163,4320,147C4480,131,4640,163,4800,163.3C4960,163,5120,131,5280,163.3C5440,196,5600,294,5760,294C5920,294,6080,196,6240,147C6400,98,6560,98,6720,147C6880,196,7040,294,7200,285.8C7360,278,7520,163,7680,138.8C7840,114,8000,180,8160,228.7C8320,278,8480,310,8640,326.7C8800,343,8960,343,9120,343C9280,343,9440,343,9600,310.3C9760,278,9920,212,10080,187.8C10240,163,10400,180,10560,179.7C10720,180,10880,163,11040,187.8C11200,212,11360,278,11440,310.3L11520,343L11520,490L11440,490C11360,490,11200,490,11040,490C10880,490,10720,490,10560,490C10400,490,10240,490,10080,490C9920,490,9760,490,9600,490C9440,490,9280,490,9120,490C8960,490,8800,490,8640,490C8480,490,8320,490,8160,490C8000,490,7840,490,7680,490C7520,490,7360,490,7200,490C7040,490,6880,490,6720,490C6560,490,6400,490,6240,490C6080,490,5920,490,5760,490C5600,490,5440,490,5280,490C5120,490,4960,490,4800,490C4640,490,4480,490,4320,490C4160,490,4000,490,3840,490C3680,490,3520,490,3360,490C3200,490,3040,490,2880,490C2720,490,2560,490,2400,490C2240,490,2080,490,1920,490C1760,490,1600,490,1440,490C1280,490,1120,490,960,490C800,490,640,490,480,490C320,490,160,490,80,490L0,490Z"/></svg>