<?xml version="1.0" standalone="no"?>
<svg xmlns:xlink="http://www.w3.org/1999/xlink" id="wave" style="transform:rotate(0deg); transition: 0.3s" viewBox="0 0 1440 490" version="1.1" xmlns="http://www.w3.org/2000/svg"><defs><linearGradient id="sw-gradient-0" x1="0" x2="0" y1="1" y2="0"><stop stop-color="rgba(63, 81, 181, 1)" offset="0%"/><stop stop-color="rgba(0, 150, 136, 1)" offset="100%"/></linearGradient></defs><path style="transform:translate(0, 0px); opacity:1" fill="url(#sw-gradient-0)" d="M0,0L240,40.8C480,82,960,163,1440,171.5C1920,180,2400,114,2880,98C3360,82,3840,114,4320,147C4800,180,5280,212,5760,196C6240,180,6720,114,7200,122.5C7680,131,8160,212,8640,220.5C9120,229,9600,163,10080,179.7C10560,196,11040,294,11520,326.7C12000,359,12480,327,12960,294C13440,261,13920,229,14400,253.2C14880,278,15360,359,15840,392C16320,425,16800,408,17280,359.3C17760,310,18240,229,18720,228.7C19200,229,19680,310,20160,302.2C20640,294,21120,196,21600,171.5C22080,147,22560,196,23040,245C23520,294,24000,343,24480,359.3C24960,376,25440,359,25920,302.2C26400,245,26880,147,27360,122.5C27840,98,28320,147,28800,187.8C29280,229,29760,261,30240,253.2C30720,245,31200,196,31680,171.5C32160,147,32640,147,33120,187.8C33600,229,34080,310,34320,351.2L34560,392L34560,490L34320,490C34080,490,33600,490,33120,490C32640,490,32160,490,31680,490C31200,490,30720,490,30240,490C29760,490,29280,490,28800,490C28320,490,27840,490,27360,490C26880,490,26400,490,25920,490C25440,490,24960,490,24480,490C24000,490,23520,490,23040,490C22560,490,22080,490,21600,490C21120,490,20640,490,20160,490C19680,490,19200,490,18720,490C18240,490,17760,490,17280,490C16800,490,16320,490,15840,490C15360,490,14880,490,14400,490C13920,490,13440,490,12960,490C12480,490,12000,490,11520,490C11040,490,10560,490,10080,490C9600,490,9120,490,8640,490C8160,490,7680,490,7200,490C6720,490,6240,490,5760,490C5280,490,4800,490,4320,490C3840,490,3360,490,2880,490C2400,490,1920,490,1440,490C960,490,480,490,240,490L0,490Z"/></svg>